<svg fill="none"
    xmlns="http://www.w3.org/2000/svg" viewBox="0 -24 742 230">
    <rect width="742" height="206" fill="white"></rect>
    <path d="M180.326 57C180.326 55.3431 181.669 54 183.326 54H201.326C202.983 54 204.326 55.3431 204.326 57V124C204.326 125.657 202.983 127 201.326 127H180.326V57Z" fill="#262626"></path>
    <path d="M388.326 57C388.326 55.3431 389.669 54 391.326 54H412.326V124C412.326 125.657 410.983 127 409.326 127H391.326C389.669 127 388.326 125.657 388.326 124V57Z" fill="#2D2D2D"></path>
    <path d="M412 54.0001H441.5C455.031 54.0001 466 64.9691 466 78.5001V78.5001C466 92.0311 455.031 103 441.5 103H412V54.0001Z" fill="#2D2D2D"></path>
    <path d="M412.326 71H431.826C435.968 71 439.326 74.3579 439.326 78.5V78.5C439.326 82.6421 435.968 86 431.826 86H412.326V71Z" fill="white"></path>
    <path d="M422.61 99.2702C422.091 98.3009 422.49 97.1701 423.502 96.7392L443.219 88.345C444.228 87.9154 445.47 88.3419 446.003 89.3011L465.34 124.068C466.049 125.342 465.14 126.794 463.632 126.794L438.695 126.794C437.874 126.794 437.101 126.342 436.727 125.643L422.61 99.2702Z" fill="#2D2D2D"></path>
    <path d="M483.326 57C483.326 55.3431 484.669 54 486.326 54H507.326V127H486.326C484.669 127 483.326 125.657 483.326 124V57Z" fill="#2D2D2D"></path>
    <path d="M496.326 54H554.326C555.983 54 557.326 55.3431 557.326 57V69C557.326 70.6569 555.983 72 554.326 72H496.326V54Z" fill="#2D2D2D"></path>
    <path d="M503 109H554C555.657 109 557 110.343 557 112V124C557 125.657 555.657 127 554 127H503V109Z" fill="#2D2D2D"></path>
    <path d="M505.326 82H540.326C541.983 82 543.326 83.3431 543.326 85V96C543.326 97.6569 541.983 99 540.326 99H505.326V82Z" fill="#2D2D2D"></path>
    <rect x="580" y="112" width="53" height="14" rx="7" fill="#2D2D2D"></rect>
    <path d="M574 112C574 110.343 575.343 109 577 109H624V127H577C575.343 127 574 125.657 574 124V112Z" fill="#2D2D2D"></path>
    <ellipse cx="623" cy="105" rx="26" ry="22" fill="#2D2D2D"></ellipse>
    <rect x="592" y="71.0001" width="33" height="12" rx="6" fill="#F5F5F5"></rect>
    <rect x="579.326" y="98" width="48" height="11" rx="5.5" fill="white"></rect>
    <rect x="604" y="84.0001" width="26" height="13" rx="6.5" fill="#2D2D2D"></rect>
    <path d="M643.019 68.5973C643.018 70.2541 641.674 71.5967 640.017 71.596L599.731 71.5785L599.743 54.0002L640.029 54.0177C641.685 54.0184 643.028 55.3622 643.027 57.019L643.019 68.5973Z" fill="#2D2D2D"></path>
    <ellipse cx="25.4863" cy="22.0044" rx="25.4863" ry="22.0044" transform="matrix(-1 -0.000433813 0.000657572 -1 625.159 98.0433)" fill="#2D2D2D"></ellipse>
    <path d="M631.917 83.0192L601.033 83.0058C597.878 83.0044 595.322 80.4455 595.324 77.2903V77.2903C595.326 74.1352 597.885 71.5785 601.041 71.5799L631.925 71.5933L631.917 83.0192Z" fill="white"></path>
    <rect width="29.3925" height="13.9922" rx="6.99612" transform="matrix(-1 -0.000433813 0.000657572 -1 631.277 97.941)" fill="#2D2D2D"></rect>
    <rect x="672.326" y="112" width="53" height="14" rx="7" fill="#2D2D2D"></rect>
    <path d="M666.326 112C666.326 110.343 667.669 109 669.326 109H716.326V127H669.326C667.669 127 666.326 125.657 666.326 124V112Z" fill="#2D2D2D"></path>
    <ellipse cx="715.326" cy="105" rx="26" ry="22" fill="#2D2D2D"></ellipse>
    <rect x="684.326" y="70.9999" width="33" height="12" rx="6" fill="#F5F5F5"></rect>
    <rect x="671.652" y="97.9998" width="48" height="11" rx="5.5" fill="white"></rect>
    <rect x="696.326" y="83.9999" width="26" height="13" rx="6.5" fill="#2D2D2D"></rect>
    <path d="M735.345 68.597C735.344 70.2539 734 71.5965 732.343 71.5957L692.058 71.5783L692.069 54L732.355 54.0175C734.012 54.0182 735.354 55.3619 735.353 57.0188L735.345 68.597Z" fill="#2D2D2D"></path>
    <ellipse cx="25.4863" cy="22.0044" rx="25.4863" ry="22.0044" transform="matrix(-1 -0.000433813 0.000657572 -1 717.485 98.0431)" fill="#2D2D2D"></ellipse>
    <path d="M724.243 83.0189L693.359 83.0055C690.204 83.0042 687.648 80.4453 687.65 77.2901V77.2901C687.652 74.1349 690.212 71.5782 693.367 71.5796L724.251 71.593L724.243 83.0189Z" fill="white"></path>
    <rect width="29.3925" height="13.9922" rx="6.99612" transform="matrix(-1 -0.000433813 0.000657572 -1 723.603 97.9408)" fill="#2D2D2D"></rect>
    <path d="M120 57.0001C120 55.3433 121.343 54.0001 123 54.0001H131.5H137H140H141.5H142H142.5L142.775 54.767L143.812 54.0001L143.898 123.992C143.9 125.651 142.556 126.996 140.898 126.996H123C121.343 126.996 120 125.653 120 123.996V57.0001Z" fill="#262626"></path>
    <path fill-rule="evenodd" clip-rule="evenodd" d="M181 126.185C181 125.614 180.427 125.221 179.894 125.427L179.129 125.722C178.705 125.885 178.426 126.292 178.426 126.746V126.746L178.664 126.996L180.185 126.999C180.635 126.999 181 126.635 181 126.185V126.185Z" fill="#262626"></path>
    <path fill-rule="evenodd" clip-rule="evenodd" d="M142.775 54.767L126.212 67.0159C124.761 68.0886 124.579 70.1899 125.823 71.4966L178.426 126.746L178.664 126.996V126.996C178.666 126.998 178.67 126.999 178.672 126.997L196.268 113.984C197.719 112.912 197.901 110.81 196.657 109.504L145.229 55.4884L143.812 54.0001L142.775 54.767Z" fill="#262626"></path>
    <path fill-rule="evenodd" clip-rule="evenodd" d="M142.775 54.767L142.5 54.0001L142.52 54.471C142.55 55.1971 143.147 55.7701 143.874 55.7701H144.948C145.103 55.7701 145.229 55.644 145.229 55.4884V55.4884L143.812 54.0001L142.775 54.767Z" fill="#262626"></path>
    <rect width="4.54079" height="3.85806" transform="matrix(0.877022 -0.480451 0.693869 0.720102 143.97 54.1818)" fill="white"></rect>
    <rect x="147" y="53.0001" width="33" height="3" fill="white"></rect>
    <path d="M208 62.0001C208 53.1636 215.163 46.0001 224 46.0001H313V62.0001H208V62.0001Z" fill="white"></path>
    <path d="M301 46.0001H314C334.987 46.0001 352 63.0133 352 84.0001V86.0001C352 106.987 334.987 124 314 124H301V46.0001Z" fill="white"></path>
    <path d="M290 62.0001H314C326.703 62.0001 337 72.2976 337 85.0001V86.0001C337 98.7027 326.703 109 314 109H290V62.0001Z" fill="#A63438"></path>
    <path d="M259 89.0001C259 82.3727 264.373 77.0001 271 77.0001H275V206V206C266.163 206 259 198.837 259 190V89.0001Z" fill="white"></path>
    <path d="M272 77.0001H313C317.418 77.0001 321 80.5818 321 85.0001V85.0001C321 89.4184 317.418 93.0001 313 93.0001H272V77.0001Z" fill="white"></path>
    <rect x="275" y="93.0001" width="7" height="7" fill="white"></rect>
    <path d="M275 100C275 96.1341 278.134 93.0001 282 93.0001H290V100H275V100Z" fill="#A63438"></path>
    <path d="M290 117C290 112.582 293.582 109 298 109H312V124H290V117Z" fill="white"></path>
    <path fill-rule="evenodd" clip-rule="evenodd" d="M143.215 54.0001L142.758 54.4229L143.676 55.4153L144.455 54.6941L144 54.2019L143.813 54.0001H143.215Z" fill="#262626"></path>
    <path fill-rule="evenodd" clip-rule="evenodd" d="M143.215 54.0001H142V55.0001H144V54.2019L143.813 54.0001H143.215Z" fill="#262626"></path>
    <rect x="190.326" y="82.066" width="150" height="150" rx="60" transform="rotate(-45 190.326 82.066)" fill="#A63438"></rect>
    <path d="M252.326 59.0001C252.326 50.1636 259.49 43.0001 268.326 43.0001H306.326V59.0001H252.326V59.0001Z" fill="white"></path>
    <path d="M294.326 43.0001H307.326C328.313 43.0001 345.326 60.0133 345.326 81.0001V83.0001C345.326 103.987 328.313 121 307.326 121H294.326V43.0001Z" fill="white"></path>
    <path d="M283.326 59.0001H307.326C320.029 59.0001 330.326 69.2976 330.326 82.0001V83.0001C330.326 95.7027 320.029 106 307.326 106H283.326V59.0001Z" fill="#A63438"></path>
    <path d="M252.326 86.0001C252.326 79.3727 257.699 74.0001 264.326 74.0001H268.326V173V173C259.49 173 252.326 165.837 252.326 157V86.0001Z" fill="white"></path>
    <path d="M265.326 74.0001H306.326C310.744 74.0001 314.326 77.5818 314.326 82.0001V82.0001C314.326 86.4184 310.744 90.0001 306.326 90.0001H265.326V74.0001Z" fill="white"></path>
    <rect x="268.326" y="90.0001" width="7" height="7" fill="white"></rect>
    <path d="M268.326 97.0001C268.326 93.1341 271.46 90.0001 275.326 90.0001H283.326V97.0001H268.326V97.0001Z" fill="#A63438"></path>
    <path d="M283.326 114C283.326 109.582 286.908 106 291.326 106H305.326V121H283.326V114Z" fill="white"></path>
    <path d="M63.5276 126.5H37.2266C36.474 126.5 35.7851 126.078 35.4439 125.407L0.855828 57.4067C0.17904 56.0762 1.14568 54.5 2.63847 54.5H24.7812C25.5297 54.5 26.2156 54.918 26.5587 55.5832L48.7042 98.5182C49.4526 99.9693 51.5304 99.9606 52.2667 98.5034L73.9452 55.5981C74.2855 54.9246 74.9758 54.5 75.7303 54.5H98.2338C99.7278 54.5 100.694 56.0785 100.015 57.4092L65.309 125.409C64.9674 126.079 64.2792 126.5 63.5276 126.5Z" fill="#262626" stroke="#2D2D2D"></path>
</svg>